<?xml version="1.0" encoding="UTF-8" standalone="no"?>
<!-- Generator: Adobe Illustrator 16.2.0, SVG Export Plug-In . SVG Version: 6.00 Build 0)  -->

<svg
   xmlns:dc="http://purl.org/dc/elements/1.1/"
   xmlns:cc="http://creativecommons.org/ns#"
   xmlns:rdf="http://www.w3.org/1999/02/22-rdf-syntax-ns#"
   xmlns:svg="http://www.w3.org/2000/svg"
   xmlns="http://www.w3.org/2000/svg"
   xmlns:sodipodi="http://sodipodi.sourceforge.net/DTD/sodipodi-0.dtd"
   xmlns:inkscape="http://www.inkscape.org/namespaces/inkscape"
   version="1.1"
   id="レイヤー_1"
   x="0px"
   y="0px"
   width="345"
   height="345"
   viewBox="0 0 345 345"
   enable-background="new 0 0 60 60"
   xml:space="preserve"
   inkscape:version="0.48.4 r9939"
   sodipodi:docname="ico_cup_star.svg"><metadata
   id="metadata65"><rdf:RDF><cc:Work
       rdf:about=""><dc:format>image/svg+xml</dc:format><dc:type
         rdf:resource="http://purl.org/dc/dcmitype/StillImage" /></cc:Work></rdf:RDF></metadata><defs
   id="defs63" /><sodipodi:namedview
   pagecolor="#ffffff"
   bordercolor="#666666"
   borderopacity="1"
   objecttolerance="10"
   gridtolerance="10"
   guidetolerance="10"
   inkscape:pageopacity="0"
   inkscape:pageshadow="2"
   inkscape:window-width="1920"
   inkscape:window-height="1017"
   id="namedview61"
   showgrid="false"
   fit-margin-top="0"
   fit-margin-left="0"
   fit-margin-right="0"
   fit-margin-bottom="0"
   inkscape:zoom="1"
   inkscape:cx="315"
   inkscape:cy="30"
   inkscape:window-x="-8"
   inkscape:window-y="-8"
   inkscape:window-maximized="1"
   inkscape:current-layer="レイヤー_1" />
<g
   id="g3"
   transform="scale(5.75,5.75)">
	<polygon
   points="28.742,46.743 28.447,48.474 30,47.658 31.555,48.474 31.258,46.743 32.514,45.518 30.775,45.267 30,43.689 29.223,45.267 27.486,45.518 "
   id="polygon5"
   style="fill:#003366" />
	<polygon
   points="22.501,47.748 23.78,48.263 24.08,49.607 24.964,48.552 26.335,48.681 25.605,47.514 26.153,46.249 24.816,46.583 23.783,45.673 23.689,47.046 "
   id="polygon7"
   style="fill:#003366" />
	<polygon
   points="33.662,48.681 35.035,48.552 35.918,49.607 36.219,48.263 37.496,47.748 36.311,47.046 36.217,45.673 35.184,46.583 33.846,46.249 34.395,47.514 "
   id="polygon9"
   style="fill:#003366" />
	<path
   d="m 15.429,29.79 c 1.792,1.645 3.634,3.194 4.352,3.791 -0.23,0.903 -0.811,3.233 -1.295,5.613 -0.58,2.84 -0.785,4.537 -0.785,5.578 0,1.151 0.252,1.5 0.52,1.703 0.543,0.409 1.518,0.556 6.873,-2.463 2.129,-1.2 4.184,-2.478 4.975,-2.975 0.785,0.493 2.814,1.754 4.92,2.944 5.285,2.984 6.295,2.872 6.826,2.532 0.313,-0.197 0.59,-0.541 0.59,-1.756 0,-1.051 -0.207,-2.752 -0.779,-5.575 -0.49,-2.419 -1.076,-4.796 -1.311,-5.711 0.715,-0.589 2.531,-2.108 4.299,-3.721 3.75,-3.424 4.461,-4.653 4.461,-5.336 0,-0.131 -0.025,-0.242 -0.061,-0.343 -0.219,-0.63 -0.939,-1.304 -7.002,-2.012 -2.412,-0.282 -4.805,-0.459 -5.734,-0.522 -0.34,-0.866 -1.23,-3.084 -2.227,-5.287 -2.514,-5.547 -3.422,-6.012 -4.078,-6.012 -0.656,0 -1.567,0.465 -4.102,6.017 -1.007,2.206 -1.905,4.428 -2.25,5.294 -0.925,0.06 -3.29,0.225 -5.678,0.495 -6.009,0.678 -6.741,1.38 -6.955,1.984 -0.037,0.104 -0.063,0.216 -0.063,0.35 0,0.692 0.721,1.939 4.504,5.412 z"
   id="path11"
   inkscape:connector-curvature="0"
   style="fill:#000d49" />
	<path
   d="m 12.257,24.468 c 0.078,-0.403 1.56,-0.683 6.156,-1.185 2.889,-0.315 5.665,-0.476 5.692,-0.478 0.25,-0.014 0.471,-0.173 0.561,-0.407 0.011,-0.026 1.03,-2.636 2.234,-5.303 1.931,-4.274 2.613,-5.525 3.07,-5.52 0.504,-0.003 1.243,1.23 3.061,5.44 0.746,1.725 1.527,3.628 2.199,5.366 0.09,0.234 0.309,0.395 0.559,0.41 0.029,0.002 2.828,0.177 5.742,0.506 4.623,0.522 6.09,0.833 6.211,1.21 0.105,0.393 -0.869,1.469 -4.258,4.536 -2.137,1.937 -4.275,3.68 -4.297,3.697 -0.15,0.124 -0.234,0.309 -0.234,0.498 0,0.054 0.006,0.108 0.02,0.162 0.008,0.026 0.717,2.768 1.318,5.664 0.83,3.982 1.252,5.998 0.783,6.332 -0.461,0.275 -1.898,-0.467 -5.727,-2.686 -2.535,-1.469 -4.912,-2.957 -4.936,-2.971 -0.209,-0.135 -0.479,-0.135 -0.69,0 -0.023,0.014 -2.396,1.524 -4.949,2.98 -3.756,2.144 -5.252,3.085 -5.748,2.682 -0.402,-0.324 0.103,-2.998 0.785,-6.279 0.598,-2.87 1.307,-5.586 1.313,-5.611 0.015,-0.055 0.021,-0.109 0.021,-0.164 0,-0.189 -0.084,-0.372 -0.234,-0.496 -0.021,-0.018 -2.187,-1.794 -4.349,-3.765 -3.446,-3.138 -4.385,-4.176 -4.303,-4.618 z"
   id="path13"
   inkscape:connector-curvature="0"
   style="fill:#fef81d" />
	<path
   d="m 15.265,20.689 c 0.197,-0.31 0.401,-0.604 0.608,-0.888 0.266,0.205 0.922,0.639 1.791,0.707 1.145,0.092 1.751,-0.525 1.751,-0.525 0,0 -0.475,-0.703 -1.62,-0.793 -0.717,-0.056 -1.342,0.155 -1.708,0.321 0.47,-0.618 0.961,-1.178 1.462,-1.685 0.272,0.209 0.926,0.634 1.783,0.702 1.144,0.091 1.75,-0.526 1.75,-0.526 0,0 -0.475,-0.702 -1.62,-0.792 -0.616,-0.049 -1.163,0.101 -1.538,0.25 0.507,-0.482 1.02,-0.911 1.527,-1.293 0.289,0.197 0.957,0.58 1.81,0.605 1.148,0.035 1.72,-0.611 1.72,-0.611 0,0 -0.514,-0.678 -1.664,-0.711 -0.398,-0.012 -0.764,0.058 -1.07,0.153 0.713,-0.477 1.398,-0.861 2.025,-1.17 0.402,0.071 1.16,0.14 1.931,-0.146 1.128,-0.417 1.394,-1.262 1.394,-1.262 0,0 -0.805,-0.45 -1.933,-0.032 -0.773,0.286 -1.28,0.824 -1.522,1.135 -0.271,0.134 -0.555,0.28 -0.845,0.442 0.169,-0.193 0.329,-0.419 0.454,-0.682 0.492,-1.037 0.041,-1.804 0.041,-1.804 0,0 -0.914,0.212 -1.406,1.249 -0.375,0.792 -0.275,1.586 -0.209,1.917 -0.473,0.31 -0.957,0.659 -1.443,1.051 0.199,-0.307 0.393,-0.707 0.463,-1.176 0.17,-1.12 -0.489,-1.742 -0.489,-1.742 0,0 -0.819,0.438 -0.987,1.559 -0.132,0.873 0.211,1.62 0.369,1.908 -0.454,0.404 -0.904,0.849 -1.345,1.336 0.138,-0.368 0.257,-0.871 0.183,-1.426 -0.146,-1.12 -0.956,-1.561 -0.956,-1.561 0,0 -0.67,0.62 -0.524,1.742 0.112,0.854 0.63,1.484 0.871,1.734 -0.471,0.563 -0.927,1.175 -1.354,1.849 l 0.3,0.165 z"
   id="path15"
   inkscape:connector-curvature="0"
   style="fill:#003366" />
	<path
   d="m 16.445,41.564 0.25,-0.24 c -0.236,-0.28 -0.455,-0.563 -0.664,-0.847 0.275,-0.191 0.887,-0.687 1.213,-1.496 0.431,-1.063 0.023,-1.828 0.023,-1.828 0,0 -0.813,0.244 -1.242,1.307 -0.269,0.668 -0.256,1.327 -0.207,1.727 -0.449,-0.634 -0.835,-1.27 -1.167,-1.9 0.28,-0.196 0.881,-0.69 1.205,-1.49 0.43,-1.063 0.023,-1.828 0.023,-1.828 0,0 -0.812,0.244 -1.243,1.309 -0.231,0.574 -0.252,1.14 -0.223,1.542 -0.309,-0.628 -0.564,-1.247 -0.775,-1.847 0.274,-0.216 0.84,-0.738 1.121,-1.543 0.378,-1.086 -0.066,-1.824 -0.066,-1.824 0,0 -0.801,0.287 -1.179,1.374 -0.131,0.376 -0.175,0.745 -0.177,1.067 -0.239,-0.823 -0.4,-1.594 -0.506,-2.283 0.188,-0.363 0.481,-1.066 0.441,-1.886 -0.06,-1.202 -0.786,-1.707 -0.786,-1.707 0,0 -0.671,0.631 -0.61,1.833 0.04,0.824 0.402,1.469 0.625,1.793 0.045,0.299 0.102,0.611 0.168,0.938 -0.133,-0.22 -0.301,-0.439 -0.516,-0.638 -0.841,-0.78 -1.707,-0.582 -1.707,-0.582 0,0 -0.073,0.936 0.769,1.716 0.644,0.595 1.43,0.74 1.766,0.776 0.152,0.543 0.34,1.109 0.568,1.691 -0.233,-0.281 -0.557,-0.586 -0.982,-0.793 -1.018,-0.5 -1.809,-0.059 -1.809,-0.059 0,0 0.171,0.913 1.189,1.41 0.793,0.389 1.608,0.287 1.93,0.223 0.251,0.554 0.539,1.117 0.871,1.683 -0.309,-0.241 -0.753,-0.505 -1.304,-0.603 -1.113,-0.196 -1.775,0.443 -1.775,0.443 0,0 0.389,0.826 1.502,1.023 0.85,0.148 1.605,-0.156 1.917,-0.311 0.396,0.621 0.843,1.24 1.357,1.85 z"
   id="path17"
   inkscape:connector-curvature="0"
   style="fill:#003366" />
	<path
   d="m 35.797,14.286 c 0.771,0.286 1.529,0.217 1.932,0.146 0.627,0.309 1.313,0.693 2.027,1.17 -0.309,-0.095 -0.674,-0.165 -1.072,-0.153 -1.148,0.034 -1.664,0.711 -1.664,0.711 0,0 0.57,0.646 1.721,0.611 0.852,-0.025 1.52,-0.409 1.809,-0.605 0.508,0.382 1.02,0.811 1.527,1.293 -0.375,-0.148 -0.92,-0.299 -1.539,-0.25 -1.145,0.09 -1.619,0.792 -1.619,0.792 0,0 0.605,0.617 1.75,0.526 0.859,-0.068 1.512,-0.493 1.785,-0.702 0.498,0.507 0.99,1.067 1.459,1.685 -0.365,-0.166 -0.99,-0.377 -1.707,-0.321 -1.145,0.09 -1.621,0.793 -1.621,0.793 0,0 0.607,0.617 1.752,0.525 0.869,-0.068 1.525,-0.502 1.791,-0.707 0.207,0.284 0.412,0.578 0.609,0.888 l 0.303,-0.167 c -0.43,-0.673 -0.885,-1.286 -1.355,-1.849 0.24,-0.25 0.76,-0.88 0.871,-1.734 0.146,-1.122 -0.525,-1.742 -0.525,-1.742 0,0 -0.809,0.44 -0.955,1.561 -0.072,0.555 0.045,1.059 0.182,1.426 -0.439,-0.487 -0.891,-0.932 -1.344,-1.336 0.158,-0.288 0.5,-1.035 0.369,-1.908 -0.168,-1.121 -0.988,-1.559 -0.988,-1.559 0,0 -0.658,0.622 -0.488,1.742 0.07,0.469 0.264,0.869 0.463,1.176 -0.486,-0.393 -0.971,-0.741 -1.443,-1.051 0.066,-0.331 0.166,-1.124 -0.209,-1.917 -0.492,-1.037 -1.406,-1.249 -1.406,-1.249 0,0 -0.449,0.767 0.043,1.804 0.123,0.263 0.283,0.489 0.451,0.682 -0.289,-0.162 -0.572,-0.309 -0.844,-0.442 -0.242,-0.311 -0.748,-0.849 -1.521,-1.135 -1.129,-0.418 -1.932,0.032 -1.932,0.032 0,0 0.261,0.847 1.388,1.264 z"
   id="path19"
   inkscape:connector-curvature="0"
   style="fill:#003366" />
	<path
   d="m 47.332,33.734 c 0.064,-0.327 0.121,-0.64 0.166,-0.938 0.225,-0.324 0.586,-0.969 0.627,-1.793 0.059,-1.202 -0.611,-1.833 -0.611,-1.833 0,0 -0.727,0.505 -0.785,1.707 -0.041,0.819 0.252,1.522 0.441,1.886 -0.107,0.689 -0.268,1.46 -0.508,2.283 -0.002,-0.322 -0.045,-0.691 -0.176,-1.067 -0.377,-1.087 -1.18,-1.374 -1.18,-1.374 0,0 -0.445,0.738 -0.066,1.824 0.281,0.805 0.848,1.327 1.121,1.543 -0.211,0.6 -0.467,1.219 -0.773,1.847 0.029,-0.402 0.006,-0.968 -0.223,-1.542 -0.432,-1.064 -1.244,-1.309 -1.244,-1.309 0,0 -0.406,0.765 0.023,1.828 0.322,0.8 0.926,1.294 1.205,1.49 -0.332,0.631 -0.719,1.267 -1.168,1.9 0.049,-0.399 0.063,-1.059 -0.207,-1.727 -0.43,-1.063 -1.242,-1.307 -1.242,-1.307 0,0 -0.406,0.766 0.023,1.828 0.328,0.81 0.938,1.305 1.215,1.496 -0.211,0.283 -0.43,0.566 -0.666,0.847 l 0.25,0.24 c 0.514,-0.61 0.961,-1.229 1.357,-1.849 0.311,0.154 1.066,0.459 1.916,0.311 1.113,-0.197 1.502,-1.023 1.502,-1.023 0,0 -0.662,-0.64 -1.775,-0.443 -0.551,0.098 -0.996,0.361 -1.305,0.603 0.332,-0.565 0.621,-1.129 0.871,-1.683 0.322,0.064 1.137,0.166 1.932,-0.223 1.016,-0.497 1.189,-1.41 1.189,-1.41 0,0 -0.791,-0.441 -1.811,0.059 -0.426,0.207 -0.748,0.512 -0.982,0.793 0.229,-0.582 0.416,-1.148 0.57,-1.691 0.336,-0.036 1.121,-0.182 1.766,-0.776 0.842,-0.78 0.77,-1.716 0.77,-1.716 0,0 -0.867,-0.198 -1.709,0.582 -0.212,0.198 -0.382,0.418 -0.513,0.637 z"
   id="path21"
   inkscape:connector-curvature="0"
   style="fill:#003366" />
	<path
   d="m 26.833,32.015 c 0.98,0.011 1.145,-1.666 1.145,-3.721 0,-2.056 0,-3.838 -1.113,-3.735 -0.97,0.089 -1.189,1.601 -1.189,3.657 -10e-4,2.054 0.131,3.788 1.157,3.799 z"
   id="path23"
   inkscape:connector-curvature="0"
   style="fill:#000d49" />
	<path
   d="m 26.452,25.442 c 0.104,-0.263 0.271,-0.392 0.445,-0.391 0.173,0 0.334,0.106 0.437,0.365 0.085,0.211 0.127,0.542 0.126,0.84 0,0.291 -0.053,0.627 -0.134,0.835 -0.105,0.268 -0.262,0.367 -0.438,0.367 -0.176,-10e-4 -0.334,-0.099 -0.437,-0.365 -0.082,-0.208 -0.126,-0.548 -0.126,-0.841 0.001,-0.295 0.042,-0.602 0.127,-0.81 z"
   id="path25"
   inkscape:connector-curvature="0"
   style="fill:#ffffff" />
	<path
   d="m 33.277,32.015 c 1.025,-0.011 1.158,-1.745 1.158,-3.799 0,-2.056 -0.221,-3.568 -1.189,-3.657 -1.115,-0.103 -1.113,1.679 -1.113,3.735 0,2.055 0.164,3.731 1.144,3.721 z"
   id="path27"
   inkscape:connector-curvature="0"
   style="fill:#000d49" />
	<path
   d="m 32.65,26.256 c -0.002,-0.298 0.041,-0.629 0.125,-0.84 0.104,-0.259 0.266,-0.365 0.438,-0.365 0.176,-10e-4 0.34,0.128 0.445,0.391 0.084,0.208 0.125,0.515 0.125,0.811 0.002,0.292 -0.043,0.632 -0.125,0.841 -0.102,0.266 -0.262,0.364 -0.436,0.365 -0.178,0 -0.334,-0.099 -0.438,-0.367 -0.081,-0.209 -0.134,-0.546 -0.134,-0.836 z"
   id="path29"
   inkscape:connector-curvature="0"
   style="fill:#ffffff" />
	<g
   id="g31">
		<g
   id="g33">
			<path
   d="M 30,0 C 13.455,0 0,13.457 0,30.001 0,46.542 13.455,60 30,60 46.543,60 60,46.542 60,30.001 60,13.457 46.543,0 30,0 z m 0,58.653 C 14.2,58.653 1.348,45.799 1.348,30.001 V 29.999 H 4.176 C 4.177,28.96 4.237,27.918 4.364,26.888 l -2.808,-0.34 c 0.141,-1.157 0.349,-2.293 0.623,-3.404 l 2.74,0.674 C 5.168,22.807 5.478,21.812 5.847,20.84 l -2.638,-1 c 0.413,-1.084 0.89,-2.137 1.426,-3.154 l 2.493,1.313 C 7.611,17.076 8.151,16.186 8.743,15.332 L 6.43,13.728 c 0.658,-0.95 1.37,-1.857 2.136,-2.719 l 2.104,1.867 c 0.69,-0.778 1.428,-1.514 2.207,-2.204 L 11.009,8.565 C 11.871,7.801 12.779,7.087 13.728,6.43 L 15.33,8.743 C 16.186,8.154 17.077,7.614 17.997,7.129 L 16.684,4.636 C 17.702,4.1 18.756,3.623 19.84,3.21 l 1.002,2.638 C 21.811,5.481 22.809,5.169 23.819,4.922 L 23.145,2.179 c 1.109,-0.274 2.246,-0.483 3.402,-0.623 l 0.338,2.808 C 27.919,4.238 28.96,4.176 30,4.176 V 1.347 c 1.168,0 2.321,0.072 3.452,0.208 l -0.338,2.808 c 1.031,0.121 2.057,0.31 3.068,0.558 l 0.674,-2.744 c 1.129,0.278 2.232,0.624 3.305,1.032 l -1.002,2.638 c 0.973,0.369 1.922,0.797 2.846,1.281 l 1.311,-2.494 c 1.023,0.539 2.01,1.139 2.957,1.793 L 44.67,8.743 c 0.855,0.593 1.674,1.238 2.455,1.929 l 1.867,-2.106 c 0.861,0.764 1.676,1.58 2.441,2.442 l -2.104,1.868 c 0.688,0.779 1.332,1.6 1.924,2.455 l 2.316,-1.603 c 0.654,0.946 1.254,1.934 1.795,2.958 l -2.494,1.313 c 0.48,0.922 0.912,1.87 1.279,2.842 l 2.639,-1.001 c 0.408,1.072 0.754,2.175 1.031,3.305 l -2.742,0.674 c 0.248,1.011 0.436,2.036 0.559,3.07 l 2.807,-0.34 c 0.139,1.132 0.209,2.283 0.209,3.453 0,15.797 -12.853,28.651 -28.652,28.651 z"
   id="path35"
   inkscape:connector-curvature="0"
   style="fill:#003366" />
		</g>
		<path
   d="m 30,8.262 c 11.989,0 21.739,9.75 21.739,21.739 0,11.985 -9.75,21.738 -21.739,21.738 C 18.012,51.739 8.262,41.986 8.262,30.001 8.262,18.012 18.011,8.262 30,8.262 M 30,6.987 C 17.311,6.987 6.987,17.311 6.987,30.001 6.986,42.69 17.31,53.013 30,53.013 42.692,53.013 53.014,42.691 53.014,30.001 53.014,17.311 42.691,6.987 30,6.987 l 0,0 z"
   id="path37"
   inkscape:connector-curvature="0"
   style="fill:#003366" />
		<polygon
   points="2.29,33.662 2.871,35.771 4.729,35.517 4.168,37.397 5.615,38.728 3.887,39.461 4.469,41.57 8.278,39.952 7.697,37.845 6.279,36.817 6.971,35.208 6.389,33.1 "
   id="polygon39"
   style="fill:#003366" />
		<path
   d="m 16.951,49.825 -1.383,-0.932 -0.458,-0.306 -1.37,-0.923 -2.391,3.304 1.827,1.229 1.754,-2.423 0.996,0.67 c 0.334,0.226 0.252,0.892 -0.259,0.956 -0.512,0.064 -1.077,-0.217 -1.077,-0.217 l 0.413,2.242 2.054,1.383 -0.344,-1.867 c 0,0 1.266,0.126 1.744,-0.533 0.691,-0.958 -0.592,-1.968 -1.506,-2.583 z"
   id="path41"
   inkscape:connector-curvature="0"
   style="fill:#003366" />
		<polygon
   points="19.816,55.77 21.707,56.438 22.974,52.935 21.083,52.268 "
   id="polygon43"
   style="fill:#003366" />
		<g
   id="g45">
			<path
   d="m 28.085,53.633 c -1.807,-0.142 -3.365,0.687 -3.479,1.851 -0.111,1.162 1.264,2.218 3.072,2.359 1.809,0.141 3.368,-0.686 3.479,-1.85 0.114,-1.164 -1.263,-2.22 -3.072,-2.36 z m -0.263,2.724 c -0.531,-0.04 -0.936,-0.353 -0.902,-0.695 0.033,-0.342 0.49,-0.585 1.023,-0.543 0.531,0.041 0.936,0.352 0.902,0.694 -0.033,0.341 -0.49,0.586 -1.023,0.544 z"
   id="path47"
   inkscape:connector-curvature="0"
   style="fill:#003366" />
		</g>
		<polygon
   points="6.954,45.729 10.271,44.707 8.255,47.44 9.555,49.151 12.075,45.735 11.1,44.452 10.774,44.024 9.799,42.742 5.653,44.019 "
   id="polygon49"
   style="fill:#003366" />
		<polygon
   points="34.613,53.47 35.973,57.173 38.088,56.498 37.453,54.77 39.939,55.905 42.322,55.146 39.656,53.927 40.963,51.441 38.58,52.202 37.363,54.522 36.729,52.794 "
   id="polygon51"
   style="fill:#003366" />
		<polygon
   points="46.203,52.669 45.041,49.521 47.949,51.373 49.693,50.078 46.057,47.765 44.75,48.735 44.313,49.058 43.004,50.03 44.457,53.963 "
   id="polygon53"
   style="fill:#003366" />
		<path
   d="m 52.809,40.844 c -1.01,-0.652 -2.025,0.624 -2.643,1.528 l -0.934,1.373 -0.307,0.453 -0.924,1.357 3.484,2.253 1.23,-1.811 -2.555,-1.652 0.672,-0.987 c 0.225,-0.332 0.916,-0.268 0.996,0.229 0.08,0.496 -0.199,1.056 -0.199,1.056 l 2.316,-0.458 1.385,-2.036 -1.93,0.381 c 0.002,0 0.106,-1.236 -0.591,-1.686 z"
   id="path55"
   inkscape:connector-curvature="0"
   style="fill:#003366" />
		<polygon
   points="52.508,38.539 53.551,38.775 54.025,36.708 56.891,37.355 57.365,35.287 54.5,34.64 54.975,32.571 53.932,32.337 53.457,34.405 52.984,36.472 "
   id="polygon57"
   style="fill:#003366" />
		<path
   d="m 53.004,30.001 c 0,-0.941 -0.059,-1.868 -0.168,-2.779 l 2.801,-0.335 C 55.516,25.854 55.33,24.829 55.08,23.818 l -2.744,0.675 c -0.225,-0.905 -0.502,-1.79 -0.828,-2.649 l 2.646,-1.004 c -0.369,-0.973 -0.797,-1.921 -1.283,-2.842 l -2.504,1.317 c -0.434,-0.821 -0.914,-1.614 -1.441,-2.373 l 2.332,-1.611 c -0.592,-0.857 -1.24,-1.677 -1.926,-2.456 l -2.121,1.881 C 46.596,14.062 45.94,13.404 45.246,12.79 l 1.877,-2.119 C 46.346,9.981 45.527,9.335 44.672,8.743 l -1.611,2.333 C 42.301,10.55 41.508,10.068 40.688,9.636 L 42.004,7.128 C 41.084,6.645 40.133,6.216 39.16,5.848 L 38.158,8.494 C 37.299,8.166 36.412,7.889 35.508,7.665 L 36.182,4.92 C 35.174,4.671 34.147,4.483 33.116,4.363 L 32.778,7.165 C 31.865,7.055 30.939,6.997 30,6.997 V 4.174 c -1.037,0 -2.078,0.063 -3.111,0.188 l 0.336,2.802 c -0.928,0.112 -1.84,0.28 -2.73,0.5 L 23.82,4.919 c -1.008,0.249 -2.006,0.56 -2.977,0.927 l 1.002,2.646 C 20.976,8.823 20.132,9.205 19.314,9.635 L 17.998,7.127 C 17.08,7.612 16.187,8.153 15.33,8.743 l 1.612,2.333 c -0.762,0.528 -1.491,1.101 -2.183,1.715 l -1.883,-2.119 c -0.776,0.688 -1.513,1.425 -2.204,2.204 l 2.12,1.881 c -0.614,0.693 -1.188,1.422 -1.716,2.186 L 8.747,15.332 c -0.591,0.853 -1.131,1.744 -1.616,2.667 l 2.505,1.317 c -0.429,0.815 -0.811,1.659 -1.14,2.528 L 5.85,20.84 c -0.369,0.971 -0.68,1.967 -0.928,2.978 l 2.744,0.674 c -0.219,0.891 -0.388,1.802 -0.5,2.73 L 4.364,26.887 C 4.238,27.918 4.181,28.96 4.178,29.999 l -2.831,0.002 c 0,-1.17 0.072,-2.321 0.209,-3.454 l 2.808,0.34 C 4.487,25.854 4.676,24.829 4.922,23.818 L 2.18,23.144 c 0.277,-1.13 0.623,-2.232 1.031,-3.305 L 5.85,20.84 C 6.219,19.867 6.647,18.919 7.13,17.998 L 4.636,16.685 c 0.54,-1.024 1.141,-2.012 1.796,-2.959 l 2.314,1.604 c 0.593,-0.857 1.236,-1.677 1.925,-2.456 L 8.567,11.006 c 0.765,-0.862 1.58,-1.678 2.442,-2.442 l 1.865,2.106 C 13.656,9.98 14.476,9.334 15.328,8.742 L 13.73,6.427 c 0.946,-0.655 1.933,-1.254 2.957,-1.793 l 1.311,2.493 C 18.92,6.644 19.871,6.215 20.844,5.847 L 19.84,3.209 C 20.914,2.801 22.018,2.456 23.147,2.178 L 23.821,4.92 C 24.833,4.671 25.856,4.483 26.889,4.363 L 26.55,1.555 C 27.681,1.418 28.833,1.347 30,1.347 v 2.828 c 1.042,0 2.083,0.063 3.116,0.188 l 0.338,-2.808 c 1.158,0.14 2.293,0.349 3.404,0.623 L 36.182,4.92 c 1.01,0.249 2.008,0.56 2.979,0.927 l 1.002,-2.638 c 1.084,0.413 2.137,0.89 3.156,1.426 l -1.314,2.492 c 0.92,0.485 1.813,1.026 2.668,1.616 l 1.602,-2.314 c 0.949,0.658 1.857,1.371 2.719,2.135 l -1.869,2.107 c 0.779,0.688 1.518,1.425 2.209,2.204 l 2.104,-1.867 c 0.766,0.862 1.479,1.77 2.137,2.718 l -2.314,1.604 c 0.59,0.853 1.131,1.744 1.613,2.667 l 2.494,-1.313 c 0.537,1.016 1.012,2.07 1.426,3.154 l -2.637,1 c 0.367,0.971 0.678,1.967 0.926,2.978 l 2.742,-0.674 c 0.273,1.11 0.482,2.246 0.621,3.403 l -2.807,0.34 c 0.127,1.031 0.188,2.073 0.188,3.112 l -2.823,0.004 z"
   id="path59"
   inkscape:connector-curvature="0"
   style="fill:#003366" />
	</g>
</g>
</svg>