<?xml version="1.0" encoding="utf-8"?>
<svg version="1.1" id="Nintendo Switch" xmlns="http://www.w3.org/2000/svg" xmlns:xlink="http://www.w3.org/1999/xlink" x="0px"
	 y="0px" viewBox="0 0 241 241" style="enable-background:new 0 0 241 241;" xml:space="preserve">
<style type="text/css">
	.red{fill:#E60012;}
	.white{fill:#FFFFFF;}
</style>
<g id="logo">
	<rect class="red" width="241" height="241"/>
	<path class="white" d="M160.5,178.4c4.6,0,8.7,2.2,11.3,6l-4.1,3.6c-1.4-2.4-4.1-3.9-7-3.9c-4.4,0-8.1,3.6-8.1,7.9s3.6,7.9,8.1,7.9
		c2.9,0,5.5-1.5,7-3.9l4.1,3.6c-2.5,3.8-6.7,6-11.3,6c-7.5,0-13.6-6.1-13.6-13.6S153,178.4,160.5,178.4L160.5,178.4z M141.9,172.4
		v-13.5h2.7l6.6,8.9v-8.9h2.7v13.5h-2.7l-6.7-9v9H141.9L141.9,172.4z M143,184.7h-8v20h-5.5v-20h-8.1v-5.4H143V184.7z M109.6,204.7
		h5.7v-25.4h-5.7V204.7L109.6,204.7z M99,158.9h11.4v2.9h-4.2v10.6h-2.9v-10.6H99V158.9z M77.6,197.6l5.4-18.4h4.5l5.4,18.4
		l4.9-18.4h5.5L96,204.7h-6.1l-4.7-16.8l-4.7,16.8h-6.1l-7.2-25.4h5.5C72.7,179.3,77.6,197.6,77.6,197.6z M89.4,158.9v13.5h-2.7
		l-6.7-9v9h-2.7v-13.5H80l6.6,8.9v-8.9C86.7,158.9,89.4,158.9,89.4,158.9z M44.6,163.4v9h-2.7v-13.5h2.7l6.6,8.9v-8.9H54v13.5h-2.7
		L44.6,163.4z M52.5,189.2h0.2c9.7,1.7,11.6,4.2,11.6,8c0,5.3-4.3,8.1-12.4,8.1c-5.5,0-9.8-2-11.1-2.7l2.4-4.3
		c1.1,0.7,4.4,2.4,9.1,2.4c5.8,0,6.7-2,6.8-3.3c0.1-2.2-2.8-2.7-7.9-3.6c-7.3-1.3-10.1-3.3-10.1-7.3c0-5,5.8-7.6,11.3-7.6
		c4.5,0,8.6,1.5,9.8,2l-1.8,4.4c-1.2-0.5-4.5-1.8-7.8-1.8c-2.9,0-4.9,0.5-5.7,1.5c-0.5,0.6-0.5,1.1-0.5,1.4
		C46.7,188.2,49.4,188.7,52.5,189.2L52.5,189.2z M64.2,172.4h3v-13.5h-3V172.4z M84.3,66.9c0-5.6,4.5-10.1,10.1-10.1
		s10.1,4.5,10.1,10.1S100,77,94.4,77S84.3,72.5,84.3,66.9z M110.8,43.2H95.1c-5,0-9.9,2-13.4,5.6c-3.6,3.5-5.6,8.4-5.6,13.4v52.6
		c0,5.1,2,9.8,5.6,13.4c3.5,3.6,8.4,5.6,13.4,5.6h15.7C110.8,133.7,110.8,43.2,110.8,43.2z M118.7,142.4H95.1
		c-15.3,0-27.7-12.4-27.7-27.7V62.2c0-15.3,12.4-27.7,27.7-27.7h23.6c0.4,0,0.8,0.4,0.8,0.8l0,0v106.3
		C119.5,142.1,119.1,142.4,118.7,142.4L118.7,142.4z M130.8,161.4H123v2.9h7.2v2.4H123v3.2h7.7v2.5h-10.5v-13.5h10.5L130.8,161.4
		L130.8,161.4z M151.7,83c-6,0-10.9,4.9-10.9,10.9s4.9,10.9,10.9,10.9s10.9-4.9,10.9-10.9C162.6,87.9,157.7,83,151.7,83L151.7,83z
		 M147.7,142.4h-16.6c-0.4,0-0.8-0.4-0.8-0.8l0,0V35.2c0-0.4,0.3-0.7,0.7-0.7l0,0h16.7c15.3,0,27.7,12.4,27.7,27.7v52.6
		C175.4,130.1,163,142.4,147.7,142.4L147.7,142.4z M171.1,161.7h-2.9v7.8h2.9c2.2,0,3.9-1.8,3.9-3.9
		C175,163.5,173.3,161.7,171.1,161.7z M171,172.4h-5.6v-13.5h5.6c3.8,0,6.9,3,6.9,6.7C177.9,169.3,174.8,172.4,171,172.4z
		 M194.7,179.3h5.3v25.4h-5.3v-10.1h-11.9v10.1h-5.3v-25.4h5.3v10h11.9V179.3z M193.8,161.4c-2.3,0-4.2,1.9-4.2,4.2s1.9,4.2,4.2,4.2
		s4.2-1.9,4.2-4.2C198,163.3,196.1,161.4,193.8,161.4z M193.8,172.8c-4,0-7.2-3.2-7.2-7.2s3.2-7.2,7.2-7.2s7.2,3.2,7.2,7.2
		S197.8,172.8,193.8,172.8z M203.4,204.7h-0.5v-2h-0.8v-0.5h2.1v0.5h-0.8V204.7L203.4,204.7z M206.8,204.7v-1.9l-0.7,1.9l0,0h-0.4
		l0,0l-0.7-1.9v1.9h-0.4v-2.5h0.7l0.6,1.8l0.6-1.8h0.7v2.5H206.8L206.8,204.7z"/>
</g>
</svg>